<?xml version="1.0" encoding="utf-8"?>
<svg xmlns="http://www.w3.org/2000/svg" viewBox="0 0 500 450" width="100%" height="100%">
  <!-- Circular Beaded Emblem -->
  <g id="beaded-emblem">
    <g>
      <circle cx="355" cy="160" r="13" fill="#009F4D" />
      <circle cx="355" cy="160" r="9.5" fill="#FFFFFF" />
      <circle cx="355" cy="160" r="5.8" fill="#ED1C24" />
    </g>
    <g>
      <circle cx="351.422" cy="187.176" r="13" fill="#009F4D" />
      <circle cx="351.422" cy="187.176" r="9.5" fill="#FFFFFF" />
      <circle cx="351.422" cy="187.176" r="5.8" fill="#ED1C24" />
    </g>
    <g>
      <circle cx="340.933" cy="212.5" r="13" fill="#009F4D" />
      <circle cx="340.933" cy="212.5" r="9.5" fill="#FFFFFF" />
      <circle cx="340.933" cy="212.5" r="5.8" fill="#ED1C24" />
    </g>
    <g>
      <circle cx="324.246" cy="234.246" r="13" fill="#009F4D" />
      <circle cx="324.246" cy="234.246" r="9.5" fill="#FFFFFF" />
      <circle cx="324.246" cy="234.246" r="5.8" fill="#ED1C24" />
    </g>
    <g>
      <circle cx="302.5" cy="250.933" r="13" fill="#009F4D" />
      <circle cx="302.5" cy="250.933" r="9.5" fill="#FFFFFF" />
      <circle cx="302.5" cy="250.933" r="5.8" fill="#ED1C24" />
    </g>
    <g>
      <circle cx="277.176" cy="261.422" r="13" fill="#009F4D" />
      <circle cx="277.176" cy="261.422" r="9.5" fill="#FFFFFF" />
      <circle cx="277.176" cy="261.422" r="5.8" fill="#ED1C24" />
    </g>
    <g>
      <circle cx="250" cy="265" r="13" fill="#009F4D" />
      <circle cx="250" cy="265" r="9.5" fill="#FFFFFF" />
      <circle cx="250" cy="265" r="5.8" fill="#ED1C24" />
    </g>
    <g>
      <circle cx="222.824" cy="261.422" r="13" fill="#009F4D" />
      <circle cx="222.824" cy="261.422" r="9.5" fill="#FFFFFF" />
      <circle cx="222.824" cy="261.422" r="5.8" fill="#ED1C24" />
    </g>
    <g>
      <circle cx="197.5" cy="250.933" r="13" fill="#009F4D" />
      <circle cx="197.5" cy="250.933" r="9.5" fill="#FFFFFF" />
      <circle cx="197.5" cy="250.933" r="5.8" fill="#ED1C24" />
    </g>
    <g>
      <circle cx="175.754" cy="234.246" r="13" fill="#009F4D" />
      <circle cx="175.754" cy="234.246" r="9.5" fill="#FFFFFF" />
      <circle cx="175.754" cy="234.246" r="5.8" fill="#ED1C24" />
    </g>
    <g>
      <circle cx="159.067" cy="212.5" r="13" fill="#009F4D" />
      <circle cx="159.067" cy="212.5" r="9.5" fill="#FFFFFF" />
      <circle cx="159.067" cy="212.5" r="5.8" fill="#ED1C24" />
    </g>
    <g>
      <circle cx="148.578" cy="187.176" r="13" fill="#009F4D" />
      <circle cx="148.578" cy="187.176" r="9.5" fill="#FFFFFF" />
      <circle cx="148.578" cy="187.176" r="5.8" fill="#ED1C24" />
    </g>
    <g>
      <circle cx="145" cy="160" r="13" fill="#009F4D" />
      <circle cx="145" cy="160" r="9.5" fill="#FFFFFF" />
      <circle cx="145" cy="160" r="5.8" fill="#ED1C24" />
    </g>
    <g>
      <circle cx="148.578" cy="132.824" r="13" fill="#009F4D" />
      <circle cx="148.578" cy="132.824" r="9.5" fill="#FFFFFF" />
      <circle cx="148.578" cy="132.824" r="5.8" fill="#ED1C24" />
    </g>
    <g>
      <circle cx="159.067" cy="107.5" r="13" fill="#009F4D" />
      <circle cx="159.067" cy="107.5" r="9.5" fill="#FFFFFF" />
      <circle cx="159.067" cy="107.5" r="5.8" fill="#ED1C24" />
    </g>
    <g>
      <circle cx="175.754" cy="85.754" r="13" fill="#009F4D" />
      <circle cx="175.754" cy="85.754" r="9.5" fill="#FFFFFF" />
      <circle cx="175.754" cy="85.754" r="5.8" fill="#ED1C24" />
    </g>
    <g>
      <circle cx="197.5" cy="69.067" r="13" fill="#009F4D" />
      <circle cx="197.5" cy="69.067" r="9.5" fill="#FFFFFF" />
      <circle cx="197.5" cy="69.067" r="5.8" fill="#ED1C24" />
    </g>
    <g>
      <circle cx="222.824" cy="58.578" r="13" fill="#009F4D" />
      <circle cx="222.824" cy="58.578" r="9.5" fill="#FFFFFF" />
      <circle cx="222.824" cy="58.578" r="5.8" fill="#ED1C24" />
    </g>
    <g>
      <circle cx="250" cy="55" r="13" fill="#009F4D" />
      <circle cx="250" cy="55" r="9.5" fill="#FFFFFF" />
      <circle cx="250" cy="55" r="5.8" fill="#ED1C24" />
    </g>
    <g>
      <circle cx="277.176" cy="58.578" r="13" fill="#009F4D" />
      <circle cx="277.176" cy="58.578" r="9.5" fill="#FFFFFF" />
      <circle cx="277.176" cy="58.578" r="5.8" fill="#ED1C24" />
    </g>
    <g>
      <circle cx="302.5" cy="69.067" r="13" fill="#009F4D" />
      <circle cx="302.5" cy="69.067" r="9.5" fill="#FFFFFF" />
      <circle cx="302.5" cy="69.067" r="5.8" fill="#ED1C24" />
    </g>
    <g>
      <circle cx="324.246" cy="85.754" r="13" fill="#009F4D" />
      <circle cx="324.246" cy="85.754" r="9.5" fill="#FFFFFF" />
      <circle cx="324.246" cy="85.754" r="5.8" fill="#ED1C24" />
    </g>
    <g>
      <circle cx="340.933" cy="107.5" r="13" fill="#009F4D" />
      <circle cx="340.933" cy="107.5" r="9.5" fill="#FFFFFF" />
      <circle cx="340.933" cy="107.5" r="5.8" fill="#ED1C24" />
    </g>
    <g>
      <circle cx="351.422" cy="132.824" r="13" fill="#009F4D" />
      <circle cx="351.422" cy="132.824" r="9.5" fill="#FFFFFF" />
      <circle cx="351.422" cy="132.824" r="5.8" fill="#ED1C24" />
    </g>

    <!-- Central Red Circle -->
    <circle cx="250" cy="160" r="88" fill="#ED1C24" />

    <!-- Monogram Characters -->
    <!-- M on top-left -->
    <text
      x="215"
      y="152"
      text-anchor="middle"
      font-family="'Playfair Display', 'Georgia', 'Times New Roman', serif"
      font-size="52"
      font-weight="bold"
      fill="#FFFFFF"
    >M</text>

    <!-- P on top-right -->
    <text
      x="285"
      y="152"
      text-anchor="middle"
      font-family="'Playfair Display', 'Georgia', 'Times New Roman', serif"
      font-size="52"
      font-weight="bold"
      fill="#FFFFFF"
    >P</text>

    <!-- Stylized Calligraphic monogram S wrapping around -->
    <text
      x="250"
      y="220"
      text-anchor="middle"
      font-family="'Mr De Haviland', 'Great Vibes', 'Brush Script MT', cursive"
      font-size="140"
      font-weight="900"
      fill="#FFFFFF"
    >S</text>
  </g>

  <!-- Brand Typography -->
  <g id="brand-text">
    <!-- Mahajan elegant script text -->
    <text
      x="220"
      y="348"
      text-anchor="middle"
      font-family="'Mr De Haviland', 'Great Vibes', 'Brush Script MT', cursive"
      font-size="125"
      font-weight="900"
      fill="#000000"
    >Mahajan</text>

    <!-- Provision Stores clean elegant italic text -->
    <text
      x="370"
      y="355"
      text-anchor="middle"
      font-family="'Playfair Display', 'Georgia', 'Times New Roman', serif"
      font-size="24"
      font-style="italic"
      font-weight="500"
      fill="#7A7A7A"
    >Provision Stores</text>
  </g>
</svg>
